<svg xmlns="http://www.w3.org/2000/svg" width="35" height="35" viewBox="0 0 32 32" stroke="currentColor" stroke-width="0.5">
    <path d="M2 7 L2 25 L30 25 L30 7 L2 7 z M4 9 L28 9 L28 23 L4 23 L4 9 z M6 11 L6 21 L9 21 C10.654 21 12 19.654 12 18 L12 14 C12 12.346 10.654 11 9 11 L6 11 z M16 11 C14.897 11 14 11.897 14 13 L14 19 C14 20.103 14.897 21 16 21 L18 21 L18 19 L16 19 L16 17 L18 17 L18 15 L16 15 L16 13 L18 13 L18 11 L16 11 z M19.691406 11 L21.775391 20.025391 C21.907391 20.595391 22.415 21 23 21 C23.585 21 24.092609 20.595391 24.224609 20.025391 L26.308594 11 L24.255859 11 L23 16.439453 L21.744141 11 L19.691406 11 z M8 13 L9 13 C9.552 13 10 13.448 10 14 L10 18 C10 18.552 9.552 19 9 19 L8 19 L8 13 z"/>
</svg>
