<?xml version="1.0" encoding="UTF-8"?>
<!-- Generator: Adobe Illustrator 15.0.0, SVG Export Plug-In . SVG Version: 6.00 Build 0)  -->
<svg version="1.2" baseProfile="tiny" id="Layer_1" xmlns="http://www.w3.org/2000/svg" xmlns:xlink="http://www.w3.org/1999/xlink" x="0px" y="0px" width="200px" height="49.654px" viewBox="0 0 200 49.654" xml:space="preserve">
<path fill="#BC3226" d="M44.177,22.456v-0.011V22.456z"/>
<path fill="#C1001F" d="M43.597,22.316v-0.012V22.316z"/>
<path fill="#C1001F" d="M75.535,22.297c0-6.665-6.507-11.911-15.985-11.911c-9.691,0-15.946,5.253-15.955,11.919  c0,7.544,8.121,11.878,15.951,11.878C66.892,34.183,75.528,30.113,75.535,22.297 M59.55,11.566c5.225,0,7.281,2.636,7.281,10.734  c0,8.112-2.046,10.701-7.285,10.701c-5.237,0-7.245-2.572-7.245-10.688C52.301,14.202,54.333,11.566,59.55,11.566"/>
<path fill="#C1001F" d="M93.871,32.502V12.069h3.776c4.154,0,5.772,1.294,5.772,4.383c0,4.059-1.679,4.777-6.514,4.777v1.181  c5.009,0,6.277,0.389,6.404,4.294c0.014,0.571,0.014,1.079,0.027,1.726c0.082,3.983,2.439,5.753,7.813,5.753  c2.422,0,4.691-0.611,6.502-1.605l0.193-0.111l-0.547-1.012c0,0-0.1,0.061-0.225,0.116c-0.787,0.394-2.254,1.003-3.623,1.003  c-1.223,0-1.697-0.561-1.861-2.11c-0.053-0.51-0.096-1.057-0.143-1.862c-0.26-4.639-2.471-6.289-8.611-6.874  c5.402-0.269,9.289-2.501,9.289-5.479c0-3.538-4.129-5.355-14.382-5.355h-17.52v1.177h5.52v20.433h-5.52v1.178h18.622v-1.178H93.871  z"/>
<path fill="#C1001F" d="M121.49,32.5v1.178h18.029c10.787,0,17.256-4.39,17.256-11.339c0-6.576-6.551-11.446-17.377-11.446H121.49  v1.176h5.527V32.5H121.49z M135.141,12.068h3.385c7.99,0,9.561,4.579,9.561,10.23c0,6.077-1.398,10.201-9.561,10.201h-3.385V12.068z  "/>
<path fill="#C1001F" d="M196.629,16.899c0-0.12-0.006-0.198-0.01-0.331c-0.08-2.719-1.076-3.975-3.824-4.566  c-1.143-0.244-2.42-0.432-4.377-0.432c-4.551,0-7.748,1.03-7.748,3.216c0,1.68,1.871,2.011,5.16,2.735  c1.24,0.267,1.631,0.32,3.061,0.605C196.398,19.632,200,22.032,200,25.939c0,5.186-5.4,8.259-14.486,8.259  c-3.703,0-7.627-0.849-10.658-1.722c-0.16-0.042-0.266-0.082-0.266-0.082v-5.988h1.184c0,0,0.014,0.211,0.09,0.564  c0.912,4.559,4.877,6.049,9.758,6.049c4.439,0,7.744-1.125,7.744-3.656c0-1.896-2.025-2.835-5.174-3.434  c-1.561-0.293-2.357-0.415-4.162-0.749c-5.51-1.017-9.715-2.917-9.715-7.39c0-4.917,5.441-7.401,14.029-7.401  c3.535,0,7.053,0.639,9.299,1.419c0.119,0.043,0.174,0.067,0.174,0.067v5.023H196.629z"/>
<path fill="#C1001F" d="M165.359,10.384c-2.193,0-3.908,1.178-3.908,2.682c0,1.238,0.973,2.685,3.723,2.685  c1.023,0,2.047-0.276,2.734-0.674c-0.006,0.03-0.01,0.048-0.025,0.108c-0.48,1.801-2.502,3.416-5.674,3.903l-0.125,0.02v1.176  c0.072-0.008,0.17-0.018,0.17-0.018c4.416-0.56,7.373-3.131,7.373-6.2C169.627,11.847,167.99,10.384,165.359,10.384"/>
<path fill="#C1001F" d="M23.075,32.488c8.772,0,11.485-2.586,11.485-13.361c0-0.15,0-0.175,0.003-0.32h1.48v14.869H0v-1.181h6.485  V0.974C6.485,0.278,6.761,0,7.456,0h1.22c0.691,0,0.971,0.278,0.971,0.974L9.636,32.495l2.093,0.011V0.983  c0-0.694,0.27-0.973,0.966-0.973l1.22-0.004c0.692,0,0.966,0.278,0.966,0.974v31.521h2.075L16.959,0.98  c0-0.695,0.275-0.974,0.966-0.974l1.225-0.003c0.688,0,0.963,0.281,0.963,0.973l-0.004,31.519L23.075,32.488z"/>
<path fill="#244627" d="M22.441,42.269h-0.468c-1.308,0-1.434,0.305-1.732,1.557h-0.422c0-0.187,0.104-1.741,0.15-1.997h6.443  c0.051,0.256,0.153,1.811,0.153,1.997h-0.418c-0.299-1.252-0.43-1.557-1.739-1.557h-0.463V47.8c0,1.181,0,1.231,0.756,1.345  l0.278,0.033v0.303h-3.573v-0.303l0.277-0.033c0.757-0.113,0.757-0.164,0.757-1.345V42.269z"/>
<path fill="#244627" d="M29.164,43.543c0-1.158,0-1.297-0.545-1.379l-0.278-0.035v-0.305h3.155v0.305l-0.284,0.035  c-0.543,0.082-0.543,0.221-0.543,1.368v1.69h3.501v-1.68c0-1.158,0-1.297-0.545-1.379l-0.274-0.035v-0.305h3.152v0.305l-0.268,0.035  c-0.556,0.082-0.556,0.221-0.556,1.379v4.223c0,1.155,0,1.295,0.556,1.377l0.268,0.035v0.303h-3.152v-0.303l0.274-0.035  c0.545-0.082,0.545-0.222,0.545-1.377v-2.019h-3.501v2.03c0,1.144,0,1.283,0.543,1.365l0.284,0.035v0.303h-3.155v-0.303l0.278-0.035  c0.545-0.082,0.545-0.222,0.545-1.365V43.543z"/>
<path fill="#244627" d="M38.877,49.178l0.278-0.037c0.547-0.1,0.547-0.068,0.547-1.375v-4.223c0-1.31,0-1.248-0.547-1.381  l-0.278-0.031v-0.303h5.345c0.144,0.592,0.144,1.286,0.144,1.879l-0.42,0.057c-0.303-1.469-0.687-1.493-1.901-1.493H41.21v2.977  h0.783c1.038,0,1.198-0.01,1.266-0.499l0.058-0.402h0.303v2.307h-0.303l-0.058-0.371c-0.078-0.51-0.252-0.51-1.215-0.51H41.21v3.096  c0.381,0.093,0.776,0.174,1.17,0.174c1.739,0,1.864-0.895,2.097-1.766l0.419,0.082c-0.056,0.81-0.153,1.412-0.381,2.123h-5.638  V49.178z"/>
<path fill="#244627" d="M52.44,43.543c0-1.158,0-1.297-0.542-1.379l-0.278-0.035v-0.305h3.153v0.305l-0.278,0.035  c-0.545,0.082-0.545,0.221-0.545,1.368v1.69h3.501v-1.68c0-1.158,0-1.297-0.547-1.379l-0.273-0.035v-0.305h3.151v0.305l-0.27,0.035  c-0.557,0.082-0.557,0.221-0.557,1.379v4.223c0,1.155,0,1.295,0.557,1.377l0.27,0.035v0.303h-3.151v-0.303l0.273-0.035  c0.547-0.082,0.547-0.222,0.547-1.377v-2.019H53.95v2.03c0,1.144,0,1.283,0.545,1.365l0.278,0.035v0.303H51.62v-0.303l0.278-0.035  c0.542-0.082,0.542-0.222,0.542-1.365V43.543z"/>
<path fill="#244627" d="M64.012,45.527c0-1.842,0.731-3.434,2.339-3.434c1.802,0,2.497,1.773,2.497,3.688  c0,1.842-0.735,3.434-2.358,3.434C64.71,49.216,64.012,47.439,64.012,45.527 M66.366,49.654c2.235,0,4.175-1.487,4.175-4.15  c0-2.586-1.822-3.849-4.059-3.849c-2.229,0-4.161,1.483-4.161,4.147C62.321,48.392,64.141,49.654,66.366,49.654"/>
<path fill="#244627" d="M72.729,49.178l0.303-0.055c0.338-0.071,0.5-0.153,0.556-0.941l0.396-6.354  c0.277-0.058,0.3-0.058,0.576-0.071l3.11,5.798l2.896-5.727c0.247-0.058,0.339-0.071,0.581-0.071l0.347,6.318  c0.045,0.885,0.195,0.987,0.559,1.048l0.344,0.055v0.303h-3.267v-0.303l0.385-0.055c0.517-0.092,0.612-0.143,0.585-0.905  l-0.146-3.99h-0.024l-2.422,5.138c-0.164,0.054-0.278,0.094-0.438,0.115l-2.621-5.253h-0.024l-0.139,3.99  c-0.037,0.763,0.071,0.8,0.592,0.905l0.385,0.055v0.303h-2.531V49.178z"/>
<path fill="#244627" d="M84.476,49.178l0.273-0.037c0.547-0.1,0.547-0.068,0.547-1.375v-4.223c0-1.31,0-1.248-0.547-1.381  l-0.273-0.031v-0.303h5.346c0.138,0.592,0.138,1.286,0.138,1.879l-0.42,0.057c-0.3-1.469-0.685-1.493-1.901-1.493h-0.834v2.977  h0.789c1.028,0,1.194-0.01,1.262-0.499l0.056-0.402h0.304v2.307H88.91l-0.056-0.371c-0.083-0.51-0.254-0.51-1.217-0.51h-0.834v3.096  c0.385,0.093,0.776,0.174,1.174,0.174c1.735,0,1.861-0.895,2.096-1.766l0.418,0.082c-0.054,0.81-0.149,1.412-0.383,2.123h-5.633  V49.178z"/>
<path fill="#244627" d="M98.988,45.527c0-1.842,0.729-3.434,2.339-3.434c1.8,0,2.497,1.773,2.497,3.688  c0,1.842-0.732,3.434-2.354,3.434C99.687,49.216,98.988,47.439,98.988,45.527 M101.341,49.654c2.239,0,4.175-1.487,4.175-4.15  c0-2.586-1.82-3.849-4.057-3.849c-2.229,0-4.161,1.483-4.161,4.147C97.298,48.392,99.115,49.654,101.341,49.654"/>
<path fill="#244627" d="M107.973,49.178l0.268-0.037c0.557-0.068,0.557-0.089,0.557-1.365v-4.243c0-1.221,0-1.276-0.549-1.37  l-0.275-0.031v-0.303h5.346c0.088,0.592,0.129,1.262,0.129,1.879l-0.418,0.047c-0.25-1.092-0.303-1.483-1.811-1.483h-0.912v3.223  h0.9c0.906,0,1.135,0,1.217-0.498l0.066-0.407h0.305v2.327h-0.305l-0.053-0.437c-0.096-0.469-0.385-0.469-1.219-0.469h-0.912v1.766  c0,1.242,0,1.276,0.551,1.365l0.268,0.037v0.303h-3.152V49.178z"/>
<path fill="#244627" d="M127.24,47.115c-0.082,0.798-0.195,1.508-0.453,2.076c-0.449,0.185-1.133,0.463-2.43,0.463  c-2.184,0-4.326-0.942-4.326-3.963c0-2.784,2.172-4.036,4.357-4.036c1.24,0,1.949,0.278,2.414,0.507  c0.078,0.385,0.191,0.766,0.191,1.908l-0.412,0.053c-0.098-0.474-0.35-2.029-2.225-2.029c-1.637,0-2.637,1.381-2.637,3.42  c0,0.385,0,3.702,2.682,3.702c2.059,0,2.4-2.065,2.418-2.172L127.24,47.115z"/>
<path fill="#244627" d="M131.703,42.352c0.195-0.059,0.395-0.081,0.602-0.081c0.93,0,1.637,0.602,1.637,1.669  c0,0.495-0.035,1.783-1.666,1.783h-0.572V42.352z M131.703,46.165h0.371c0.732,0,0.756,0.429,1.16,1.205l0.439,0.86  c0.252,0.505,0.707,1.25,1.879,1.25h1.006v-0.303c-0.207-0.021-0.527-0.049-0.742-0.311c-0.834-1.055-1.68-2.729-1.85-3.12  c0.66-0.303,1.482-0.963,1.482-1.983c0-1.817-1.672-1.939-2.738-1.939h-3.342v0.303l0.271,0.037  c0.557,0.082,0.557,0.195,0.557,1.368v4.233c0,1.155,0,1.295-0.545,1.377l-0.283,0.035v0.303h3.158v-0.303l-0.279-0.035  c-0.545-0.082-0.545-0.222-0.545-1.367V46.165z"/>
<path fill="#244627" d="M140.576,47.775c0,1.146,0,1.285,0.541,1.367l0.279,0.035v0.303h-3.152v-0.303l0.279-0.035  c0.541-0.082,0.541-0.222,0.541-1.367v-4.232c0-1.158,0-1.297-0.541-1.379l-0.279-0.037v-0.303h3.152v0.303l-0.279,0.037  c-0.541,0.082-0.541,0.221-0.541,1.368V47.775z"/>
<path fill="#244627" d="M150.945,47.115c-0.078,0.798-0.191,1.508-0.449,2.076c-0.451,0.185-1.133,0.463-2.436,0.463  c-2.182,0-4.32-0.942-4.32-3.963c0-2.784,2.168-4.036,4.357-4.036c1.242,0,1.947,0.278,2.41,0.507  c0.086,0.385,0.197,0.766,0.197,1.908l-0.418,0.053c-0.09-0.474-0.35-2.029-2.227-2.029c-1.637,0-2.631,1.381-2.631,3.42  c0,0.385,0,3.702,2.678,3.702c2.066,0,2.4-2.065,2.422-2.172L150.945,47.115z"/>
<path fill="#244627" d="M153.094,49.178l0.275-0.037c0.545-0.078,0.545-0.221,0.545-1.365v-4.232c0-1.16,0-1.299-0.545-1.381  l-0.275-0.031v-0.303h3.156v0.303l-0.281,0.031c-0.543,0.082-0.543,0.221-0.543,1.37v1.772h0.342c0.674,0,2.508-2.756,2.508-2.932  c0-0.16-0.221-0.171-0.422-0.195l-0.426-0.047v-0.303h2.861v0.303l-0.23,0.047c-0.719,0-1.506,1.226-2.92,2.78  c2.455,4.06,2.68,4.22,3.232,4.22v0.303h-1.016c-0.988,0-1.277-0.011-2.902-2.782c-0.244-0.442-0.475-0.869-0.859-0.869h-0.168  v1.946c0,1.145,0,1.287,0.543,1.365l0.281,0.037v0.303h-3.156V49.178z"/>
<path fill="#244627" d="M162.162,49.178l0.273-0.037c0.543-0.1,0.543-0.068,0.543-1.375v-4.223c0-1.31,0-1.248-0.543-1.381  l-0.273-0.031v-0.303h5.338c0.139,0.592,0.139,1.286,0.139,1.879l-0.412,0.057c-0.303-1.469-0.686-1.493-1.902-1.493h-0.834v2.977  h0.787c1.031,0,1.191-0.01,1.264-0.499l0.053-0.402h0.303v2.307h-0.303l-0.053-0.371c-0.082-0.51-0.254-0.51-1.217-0.51h-0.834  v3.096c0.381,0.093,0.777,0.174,1.174,0.174c1.736,0,1.861-0.895,2.094-1.766l0.42,0.082c-0.057,0.81-0.154,1.412-0.383,2.123  h-5.633V49.178z"/>
<path fill="#244627" d="M172.223,42.269h-0.465c-1.311,0-1.439,0.305-1.738,1.557h-0.418c0-0.187,0.104-1.741,0.148-1.997h6.445  c0.051,0.256,0.152,1.811,0.152,1.997h-0.414c-0.303-1.252-0.43-1.557-1.742-1.557h-0.463V47.8c0,1.181,0,1.231,0.754,1.345  l0.279,0.033v0.303h-3.572v-0.303l0.279-0.033c0.754-0.113,0.754-0.164,0.754-1.345V42.269z"/>
</svg>