<svg width="284" height="126" viewBox="0 0 284 126" fill="none" xmlns="http://www.w3.org/2000/svg">
<g clip-path="url(#clip0)">
<path d="M65.0456 54.0352L73.2398 62.2294L105.076 54.0352L73.2283 45.8364L65.0341 14L56.8384 45.8364L65.0372 54.0352H65.0456Z" fill="#07BCFF"/>
<path d="M71.5951 69.7522L65.0367 55.2017L50.5314 48.6272L25 55.2002L56.8387 63.3944L65.0329 95.2331L71.5951 69.7522Z" fill="#07BCFF"/>
<path d="M174.131 99.8324V97.0861H176.402V99.8331C176.402 102.36 178.025 103.315 180.948 103.315C183.833 103.315 185.455 102.363 185.455 99.7251V96.0584C185.455 94.0443 184.624 92.8367 182.28 92.7976L179.289 92.6896C176.114 92.613 174.131 91.7002 174.131 88.2548V84.4809C174.131 79.8232 177.306 79.0574 180.873 79.0574C184.479 79.0574 187.724 79.8232 187.724 84.3706V87.1199H185.454V84.3706C185.454 81.6956 183.686 80.7429 180.873 80.7429C178.097 80.7429 176.4 81.6964 176.4 84.4809V87.8504C176.4 89.9396 177.232 90.9642 179.503 91.0025L182.46 91.1105C185.668 91.1871 187.724 92.2462 187.724 95.216V99.7228C187.724 104.232 184.407 105 180.945 105C177.45 105.002 174.131 104.233 174.131 99.8324ZM203.58 104.855V80.9635H197.919V79.2036H211.55V80.965H206.681L205.89 80.1586V104.855H203.58ZM257.105 104.855L252.563 94.6662H249.248L247.551 92.9814H251.844C255.555 92.9814 256.273 91.5478 256.273 88.9142V84.9924C256.273 82.3565 255.555 80.9252 251.844 80.9252H247.551V104.853H245.278V79.2036H251.844C256.384 79.1699 258.546 80.3753 258.546 84.9924V88.6201C258.546 92.0992 257.466 93.751 254.941 94.3752L259.557 104.853L257.105 104.855ZM233.019 104.855L227.573 82.2072L222.274 104.853H220.256L226.494 79.2036H229.126L235.363 104.853L233.019 104.855ZM162.342 104.855V79.2036H164.613V104.853L162.342 104.855ZM149.287 104.855L139.912 83.4225V104.853H138.034V79.2036H140.379L149.752 101.3V79.2036H151.629V104.853L149.287 104.855ZM125.219 104.855L119.776 82.2072L114.475 104.853H112.457L118.695 79.2036H121.326L127.563 104.853L125.219 104.855ZM93.5071 104.855L91.7427 103.338V79.2036H94.0156V103.093H101.986V104.855L93.5071 104.855Z" fill="#07BCFF"/>
</g>
<defs>
<clipPath id="clip0">
<rect width="284" height="126" fill="white"/>
</clipPath>
</defs>
</svg>
